<?xml version="1.0" encoding="UTF-8" standalone="no"?>
<!DOCTYPE svg PUBLIC "-//W3C//DTD SVG 1.1//EN" "http://www.w3.org/Graphics/SVG/1.1/DTD/svg11.dtd">
<svg width="100%" height="100%" viewBox="0 0 1000 1000" version="1.1" xmlns="http://www.w3.org/2000/svg" xmlns:xlink="http://www.w3.org/1999/xlink" xml:space="preserve" xmlns:serif="http://www.serif.com/" style="fill-rule:evenodd;clip-rule:evenodd;stroke-linejoin:round;stroke-miterlimit:2;">
    <g id="VÊAÍ" transform="matrix(10.312273,0,0,10.312273,-195.51887,809.244441)">
        <g transform="matrix(1,0,0,1,-35.677841,0)">
            <path d="M140.616,-48.528L140.616,0L151.56,0L151.56,-48.528L140.616,-48.528ZM146.808,-59.976L140.76,-51.12L151.609,-51.12L151.609,-59.976L146.808,-59.976Z" style="fill:rgb(238,108,77);fill-rule:nonzero;"/>
        </g>
        <g transform="matrix(1,0,0,1,-16.764345,0)">
            <path d="M117.072,-12.456L120.816,0L132.696,0L117.576,-48.528L103.176,-48.528L88.416,0L99.72,0L103.176,-12.456L117.072,-12.456ZM104.76,-20.664L107.64,-30.96C108.432,-33.768 109.152,-37.44 109.872,-40.32L110.016,-40.32C110.736,-37.44 111.6,-33.84 112.464,-30.96L115.488,-20.664L104.76,-20.664Z" style="fill:rgb(238,108,77);fill-rule:nonzero;"/>
        </g>
        <path d="M80.856,-29.448L63,-29.448L63,-39.528L81.936,-39.528L81.936,-48.528L52.056,-48.528L52.056,0L82.944,0L82.944,-9L63,-9L63,-20.52L80.856,-20.52L80.856,-29.448ZM63.144,-59.976L52.379,-51.12L63.576,-51.12L67.176,-53.589L67.32,-53.658L70.92,-51.12L81.925,-51.12L71.352,-59.976L63.144,-59.976Z" style="fill:rgb(238,108,77);fill-rule:nonzero;"/>
        <g transform="matrix(1,0,0,1,18.311823,0)">
            <path d="M29.016,0L45.36,-48.528L33.696,-48.528L27.504,-27.792C25.848,-22.248 24.336,-16.488 23.112,-10.656L22.896,-10.656C21.744,-16.704 20.232,-22.176 18.576,-28.008L12.672,-48.528L0.648,-48.528L16.2,0L29.016,0Z" style="fill:rgb(238,108,77);fill-rule:nonzero;"/>
        </g>
    </g>
</svg>
